# xmcd CD database file
#
# Track frame offsets:
#	150
#	12670
#	27492
#	38362
#	52150
#	65552
#	80760
#	93250
#	107017
#	117327
#	131620
#	143805
#	157435
#	169427
#	183047
#	194100
#	206402
#
# Disc length: 2921 seconds
#
# Revision: 1
# Processed by: cddbd v1.5.2PL0 Copyright (c) Steve Scherf et al.
# Submitted via: CDex 1.51
#
DISCID=fd0b6711
DTITLE=Elmore James and John Brim - Whose Muddy Shoes
DYEAR=1900
DGENRE=Blues
TTITLE0=Ice Cream Man
TTITLE1=Whose Muddy Shoes
TTITLE2=Madison Blues
TTITLE3=I See My Baby
TTITLE4=You Got Me
TTITLE5=My Best Friend
TTITLE6=The Sun Is Shining
TTITLE7=Lifetime Baby
TTITLE8=Talk To Me Baby (I Can't Hold Out)
TTITLE9=Rattlesnake
TTITLE10=Be Careful
TTITLE11=Dust My Broom
TTITLE12=Tool Bag Boogie
TTITLE13=Tough Times
TTITLE14=Call It Stormy Monday
TTITLE15=The Sun Is Shining (Alternate)
TTITLE16=Gary Stomp
EXTD=
EXTT0=
EXTT1=
EXTT2=
EXTT3=
EXTT4=
EXTT5=
EXTT6=
EXTT7=
EXTT8=
EXTT9=
EXTT10=
EXTT11=
EXTT12=
EXTT13=
EXTT14=
EXTT15=
EXTT16=
PLAYORDER=
